HIERARCHY
ROOT Hips
{
	OFFSET 34.090599 -78.666916 98.831787
	CHANNELS 6 Xposition Yposition Zposition Xrotation Yrotation Zrotation
	JOINT spine
	{
		OFFSET 0.000000 -0.507027 8.817039
		CHANNELS 3 Xrotation Yrotation Zrotation
		JOINT spine1
		{
			OFFSET 0.000000 -0.000008 10.776604
			CHANNELS 3 Xrotation Yrotation Zrotation
			JOINT spine2
			{
				OFFSET 0.000000 0.000000 10.325897
				CHANNELS 3 Xrotation Yrotation Zrotation
				JOINT Neck
				{
					OFFSET 0.000000 -1.263947 26.511002
					CHANNELS 3 Xrotation Yrotation Zrotation
					JOINT Head
					{
						OFFSET 0.000000 0.000000 8.009659
						CHANNELS 3 Xrotation Yrotation Zrotation
						End Site
						{
							OFFSET 0.000000 6.393852 19.387894
						}
					}
				}
				JOINT RightShoulder
				{
					OFFSET -4.347950 0.605423 11.151199
					CHANNELS 3 Xrotation Yrotation Zrotation
					JOINT RightArm
					{
						OFFSET 0.000000 0.000000 14.625793
						CHANNELS 3 Xrotation Yrotation Zrotation
						JOINT RightArmRoll
						{
							OFFSET 0.000000 0.000000 7.383408
							CHANNELS 3 Xrotation Yrotation Zrotation
							JOINT RightForeArm
							{
								OFFSET 0.000000 -0.000008 21.505203
								CHANNELS 3 Xrotation Yrotation Zrotation
								JOINT RightForeArmRoll
								{
									OFFSET 0.000000 0.000000 8.285324
									CHANNELS 3 Xrotation Yrotation Zrotation
									JOINT RightHand
									{
										OFFSET 0.000000 0.000000 16.626801
										CHANNELS 3 Xrotation Yrotation Zrotation
										End Site
										{
											OFFSET 0.000000 0.000000 0.100006
										}
									}
								}
							}
						}
					}
				}
				JOINT LeftShoulder
				{
					OFFSET 4.347950 0.605423 11.151199
					CHANNELS 3 Xrotation Yrotation Zrotation
					JOINT LeftArm
					{
						OFFSET 0.000000 0.000000 14.625793
						CHANNELS 3 Xrotation Yrotation Zrotation
						JOINT LeftArmRoll
						{
							OFFSET 0.000000 0.000000 7.383408
							CHANNELS 3 Xrotation Yrotation Zrotation
							JOINT LeftForeArm
							{
								OFFSET 0.000000 -0.000008 21.505203
								CHANNELS 3 Xrotation Yrotation Zrotation
								JOINT LeftForeArmRoll
								{
									OFFSET 0.000000 0.000000 8.285324
									CHANNELS 3 Xrotation Yrotation Zrotation
									JOINT LeftHand
									{
										OFFSET 0.000000 0.000000 16.626801
										CHANNELS 3 Xrotation Yrotation Zrotation
										End Site
										{
											OFFSET 0.000000 0.000000 0.100006
										}
									}
								}
							}
						}
					}
				}
			}
		}
	}
	JOINT RightUpLeg
	{
		OFFSET -7.815100 1.202171 -1.433090
		CHANNELS 3 Xrotation Yrotation Zrotation
		JOINT RightUpLegRoll
		{
			OFFSET 0.000000 0.000000 19.495895
			CHANNELS 3 Xrotation Yrotation Zrotation
			JOINT RightLeg
			{
				OFFSET 0.000000 0.000000 -24.142700
				CHANNELS 3 Xrotation Yrotation Zrotation
				JOINT RightLegRoll
				{
					OFFSET 0.000000 0.000000 24.221703
					CHANNELS 3 Xrotation Yrotation Zrotation
					JOINT RightFoot
					{
						OFFSET 0.000000 -0.000008 20.160500
						CHANNELS 3 Xrotation Yrotation Zrotation
						JOINT RightToeBase
						{
							OFFSET 0.000000 0.000000 16.853195
							CHANNELS 3 Xrotation Yrotation Zrotation
							End Site
							{
								OFFSET 0.007143 0.940781 8.161865
							}
						}
					}
				}
			}
		}
	}
	JOINT LeftUpLeg
	{
		OFFSET 7.815102 1.202171 -1.433090
		CHANNELS 3 Xrotation Yrotation Zrotation
		JOINT LeftUpLegRoll
		{
			OFFSET 0.000000 0.000000 19.496002
			CHANNELS 3 Xrotation Yrotation Zrotation
			JOINT LeftLeg
			{
				OFFSET 0.000000 -0.000008 24.142593
				CHANNELS 3 Xrotation Yrotation Zrotation
				JOINT LeftLegRoll
				{
					OFFSET 0.000000 -0.000008 24.445602
					CHANNELS 3 Xrotation Yrotation Zrotation
					JOINT LeftFoot
					{
						OFFSET 0.000000 0.000000 19.936600
						CHANNELS 3 Xrotation Yrotation Zrotation
						JOINT LeftToeBase
						{
							OFFSET 0.000000 0.000000 16.853195
							CHANNELS 3 Xrotation Yrotation Zrotation
							End Site
							{
								OFFSET -0.032013 0.940781 8.161865
							}
						}
					}
				}
			}
		}
	}
}
MOTION
Frames: 9
Frame Time: 0.041667
51.290295 -17.698704 100.858994 -0.073672 -0.038140 0.156144 -2.481807 -0.001032 -0.001669 -0.960806 -0.002077 -0.002555 0.684269 -0.002119 -0.002540 24.253448 -5.602485 8.700004 -0.048679 13.862893 6.781838 -13.366855 -34.276478 -14.726427 32.818427 -45.363972 75.409803 0.000007 -0.000017 -0.000001 1.122133 2.897496 -0.063175 0.000001 -0.000012 -3.004457 -5.000218 -7.998771 0.000182 -14.319761 39.633351 16.235104 27.252634 49.071122 -65.549892 0.000001 -0.000004 0.000004 1.522556 -4.192985 1.056097 0.000001 -0.000000 2.999990 -5.000198 7.998703 -0.000156 -1.333303 -177.906566 -0.394489 -179.999991 0.000005 -1.070996 173.596047 -1.536353 -0.468418 -0.000000 -0.000001 0.078334 69.054394 6.909547 2.074113 25.456901 -7.353114 -0.000002 -1.404688 176.745966 2.200000 -0.000005 -0.000004 -1.070550 -6.704074 2.299595 0.414511 -0.000004 0.000001 -0.095201 69.533539 -6.905484 -2.056390 25.456873 7.347653 0.000007 
51.298695 -17.692024 100.855980 -0.075204 -0.038949 0.151491 -2.481168 -0.000265 -0.000630 -0.959519 -0.000536 -0.000950 0.685556 -0.000547 -0.000948 24.252569 -5.603062 8.701619 -0.051440 13.860291 6.784668 -13.367243 -34.275853 -14.726793 32.822122 -45.364604 75.413519 0.000007 -0.000017 -0.000001 1.122877 2.897916 -0.063186 0.000001 -0.000012 -3.004459 -5.000218 -7.998771 0.000183 -14.319270 39.633508 16.233367 27.250751 49.070166 -65.548841 0.000001 -0.000004 0.000005 1.524582 -4.193250 1.056053 0.000001 -0.000000 2.999990 -5.000198 7.998702 -0.000156 -1.333093 -177.906566 -0.395145 -179.999991 0.000005 -1.070996 173.595678 -1.535360 -0.468316 0.000000 -0.000001 0.078256 69.054285 6.909542 2.074119 25.456906 -7.353114 -0.000002 -1.402874 176.745980 2.198326 -0.000005 -0.000004 -1.070550 -6.704366 2.299991 0.414732 -0.000004 0.000001 -0.095216 69.532480 -6.905512 -2.056361 25.456871 7.347653 0.000007 
51.293594 -17.711716 100.858994 -0.076104 -0.039629 0.147069 -2.480769 -0.000000 0.000000 -0.958717 -0.000000 0.000000 0.686358 0.000000 -0.000000 24.252542 -5.600193 8.703544 -0.054104 13.857294 6.787572 -13.365690 -34.273049 -14.724402 32.825879 -45.365324 75.417118 0.000006 -0.000018 0.000000 1.123536 2.898353 -0.063192 0.000002 -0.000012 -3.004457 -5.000218 -7.998771 0.000181 -14.320123 39.636291 16.234023 27.247931 49.068731 -65.546696 0.000001 -0.000004 0.000002 1.526026 -4.193217 1.056024 0.000000 -0.000000 2.999987 -5.000198 7.998701 -0.000153 -1.333724 -177.906566 -0.395806 -179.999991 0.000005 -1.070996 173.594940 -1.533377 -0.468113 0.000001 -0.000001 0.078178 69.054285 6.909543 2.074119 25.456902 -7.353114 -0.000003 -1.401905 176.744969 2.196786 -0.000005 -0.000004 -1.070550 -6.704699 2.300605 0.414949 -0.000004 0.000001 -0.095232 69.531524 -6.905472 -2.056314 25.456873 7.347653 0.000007 
51.294697 -17.710415 100.859993 -0.076298 -0.040168 0.142789 -2.480631 -0.000331 0.000172 -0.958440 -0.000660 0.000188 0.686636 -0.000665 0.000200 24.253237 -5.593232 8.705889 -0.056878 13.853691 6.790653 -13.362002 -34.267616 -14.718943 32.830090 -45.366007 75.421169 0.000006 -0.000017 -0.000001 1.124047 2.898834 -0.063192 0.000000 -0.000013 -3.004462 -5.000218 -7.998771 0.000184 -14.322225 39.641895 16.237400 27.244520 49.066832 -65.543909 0.000002 -0.000003 0.000001 1.526798 -4.193046 1.055993 0.000001 -0.000000 2.999988 -5.000198 7.998702 -0.000153 -1.335357 -177.906579 -0.396552 -179.999991 0.000005 -1.070996 173.593779 -1.532382 -0.468033 0.000001 -0.000001 0.078099 69.054182 6.909535 2.074126 25.456902 -7.353115 -0.000002 -1.401836 176.744983 2.195202 -0.000005 -0.000004 -1.070560 -6.705093 2.301437 0.415172 -0.000004 0.000001 -0.095247 69.530465 -6.905466 -2.056378 25.456871 7.347653 0.000007 
51.293697 -17.682713 100.858994 -0.075832 -0.040570 0.138527 -2.480729 -0.001254 -0.000088 -0.958641 -0.002507 -0.000374 0.686434 -0.002528 -0.000335 24.254762 -5.582165 8.708755 -0.059904 13.849491 6.793987 -13.356270 -34.259338 -14.710474 32.834864 -45.366598 75.425670 0.000007 -0.000017 -0.000001 1.124401 2.899371 -0.063202 0.000000 -0.000013 -3.004463 -5.000218 -7.998772 0.000181 -14.325973 39.650273 16.243846 27.240748 49.064623 -65.540924 0.000001 -0.000004 0.000007 1.526948 -4.192896 1.055967 0.000000 -0.000000 2.999991 -5.000198 7.998703 -0.000158 -1.337968 -177.905555 -0.397472 -179.999991 0.000005 -1.070996 173.592113 -1.531373 -0.467965 0.000001 -0.000001 0.078021 69.054182 6.909535 2.074126 25.456902 -7.353114 -0.000002 -1.402595 176.744969 2.193505 -0.000005 -0.000004 -1.070559 -6.705538 2.302449 0.415407 -0.000005 0.000001 -0.095262 69.529304 -6.905489 -2.056253 25.456868 7.347653 0.000007 
51.292595 -17.692230 100.857994 -0.074782 -0.040851 0.134286 -2.481041 -0.002685 -0.000722 -0.959259 -0.005371 -0.001582 0.685817 -0.005417 -0.001504 24.256841 -5.567606 8.712038 -0.063111 13.844789 6.797547 -13.348707 -34.248781 -14.699438 32.840134 -45.367240 75.430485 0.000007 -0.000017 -0.000001 1.124620 2.899942 -0.063209 0.000002 -0.000012 -3.004458 -5.000218 -7.998771 0.000177 -14.331263 39.660955 16.253012 27.236686 49.062181 -65.537728 0.000002 -0.000003 0.000006 1.526557 -4.192756 1.055945 0.000000 -0.000000 2.999992 -5.000197 7.998701 -0.000156 -1.341441 -177.905568 -0.398493 -179.999991 0.000005 -1.070996 173.590023 -1.529384 -0.467798 0.000000 -0.000001 0.077942 69.054182 6.909535 2.074126 25.456897 -7.353114 -0.000002 -1.404082 176.743972 2.191744 -0.000005 -0.000004 -1.070560 -6.706053 2.303608 0.415652 -0.000004 0.000001 -0.095278 69.528027 -6.905470 -2.056332 25.456870 7.347654 0.000007 
51.290695 -17.704121 100.861984 -0.073245 -0.041023 0.130066 -2.481517 -0.004538 -0.001672 -0.960228 -0.009083 -0.003336 0.684848 -0.009162 -0.003209 24.259495 -5.550155 8.715706 -0.066414 13.839690 6.801278 -13.339733 -34.236306 -14.686309 32.845977 -45.367797 75.435860 0.000007 -0.000017 -0.000000 1.124731 2.900563 -0.063217 0.000000 -0.000013 -3.004460 -5.000219 -7.998771 0.000186 -14.337475 39.673502 16.264205 27.232511 49.059565 -65.534395 0.000001 -0.000003 0.000003 1.525714 -4.192609 1.055924 0.000000 -0.000000 2.999993 -5.000198 7.998702 -0.000158 -1.345621 -177.905568 -0.399613 -179.999991 0.000005 -1.070996 173.587619 -1.528386 -0.467751 -0.000001 -0.000001 0.077864 69.054182 6.909535 2.074126 25.456902 -7.353115 -0.000002 -1.406192 176.742988 2.189918 -0.000005 -0.000004 -1.070570 -6.706631 2.304896 0.415906 -0.000004 0.000001 -0.095293 69.526661 -6.905485 -2.056318 25.456871 7.347653 0.000007 
51.278297 -17.713604 100.860992 -0.071306 -0.041101 0.125870 -2.482147 -0.006729 -0.002879 -0.961485 -0.013474 -0.005533 0.683590 -0.013590 -0.005351 24.262451 -5.530414 8.719659 -0.069734 13.834286 6.805160 -13.329420 -34.222284 -14.671378 32.852138 -45.368347 75.441502 0.000006 -0.000017 -0.000001 1.124781 2.901202 -0.063226 0.000000 -0.000012 -3.004459 -5.000219 -7.998771 0.000183 -14.344789 39.687504 16.277253 27.228081 49.056799 -65.530918 0.000001 -0.000003 0.000007 1.524530 -4.192431 1.055905 0.000000 0.000000 2.999991 -5.000198 7.998703 -0.000154 -1.350395 -177.905568 -0.400804 -179.999991 0.000005 -1.070996 173.584968 -1.526383 -0.467598 0.000001 -0.000001 0.077784 69.054087 6.909565 2.074138 25.456901 -7.353114 -0.000002 -1.408817 176.742988 2.188037 -0.000005 -0.000004 -1.070570 -6.707268 2.306284 0.416166 -0.000004 0.000001 -0.095308 69.525288 -6.905498 -2.056308 25.456870 7.347653 0.000007 
51.276695 -17.702812 100.859985 -0.069034 -0.041098 0.121699 -2.482890 -0.009174 -0.004287 -0.962967 -0.018373 -0.008074 0.682109 -0.018530 -0.007828 24.265745 -5.508990 8.723867 -0.073000 13.828689 6.809133 -13.318429 -34.207066 -14.655282 32.858633 -45.368698 75.447342 0.000007 -0.000018 -0.000003 1.124773 2.901861 -0.063231 0.000000 -0.000013 -3.004458 -5.000218 -7.998771 0.000184 -14.352720 39.702517 16.291545 27.223604 49.053944 -65.527264 0.000001 -0.000003 0.000002 1.523096 -4.192214 1.055885 0.000000 -0.000000 2.999990 -5.000198 7.998702 -0.000154 -1.355629 -177.905582 -0.402041 -179.999991 0.000005 -1.070996 173.582127 -1.524392 -0.468447 0.000000 -0.000001 0.077705 69.054087 6.909565 2.074137 25.456902 -7.353114 -0.000002 -1.411854 176.741991 2.186175 -0.000005 -0.000004 -1.070570 -6.707955 2.307760 0.416431 -0.000004 0.000001 -0.095323 69.523901 -6.905477 -2.056390 25.456871 7.347652 0.000007 
